<?xml version="1.0" encoding="UTF-8"?>
<svg version="1.1" xmlns="http://www.w3.org/2000/svg" width="512" height="512">
<path d="M0 0 C2.42260225 1.35208188 4.44099318 2.65005165 6.625 4.3125 C7.22965088 4.75964355 7.83430176 5.20678711 8.45727539 5.66748047 C17.49074587 12.47418335 25.95424373 20.13080784 33 29 C33.41685059 29.515625 33.83370117 30.03125 34.26318359 30.5625 C47.49526211 47.04625717 57.59789944 65.21874326 65 85 C65.27537598 85.73250977 65.55075195 86.46501953 65.83447266 87.21972656 C77.79086359 119.6079248 79.54459493 152.71072769 79.38611603 186.85306931 C79.37485217 189.53520039 79.36920555 192.21729384 79.3649292 194.89944458 C79.30100488 228.54965627 78.10088139 262.0776274 76.18676758 295.6696167 C75.95548709 299.79374088 75.7416052 303.91862502 75.53079224 308.0438385 C75.31847485 312.19623137 75.09816012 316.34817725 74.875 320.5 C74.8367511 321.2190451 74.7985022 321.93809021 74.75909424 322.67892456 C74.65438803 324.60914956 74.54231804 326.53897118 74.4296875 328.46875 C74.37022949 329.50451172 74.31077148 330.54027344 74.24951172 331.60742188 C74 334 74 334 73 336 C61.33296744 338.76752865 48.94338376 339.21159538 37 339 C36.896875 340.175625 36.79375 341.35125 36.6875 342.5625 C36.3157225 346.8007635 34.73765001 350.15667223 33 354 C23.63873691 355.22914592 14.46576558 356.36799953 5 356 C5 358.31 5 360.62 5 363 C5.9075 362.505 6.815 362.01 7.75 361.5 C13.51831007 359.04964064 20.22457772 358.88528832 26.22265625 360.65625 C29.53423759 362.28743232 31.07956512 364.12929332 33 367.25 C34.24677698 371.92541367 34.13774579 374.29731739 33 379 C31.08440213 382.26361119 29.70637108 383.65502808 26.3125 385.3125 C22.1548709 386.17540415 18.22813509 386.1691254 14 386 C13.566875 386.94875 13.13375 387.8975 12.6875 388.875 C11 392 11 392 8 394 C4.91285916 394.60124091 2.08287023 394.63820822 -1 394 C-3.79760068 391.85911309 -5.42839452 389.14321095 -7 386 C-7.515625 386.165 -8.03125 386.33 -8.5625 386.5 C-14.49986612 387.71792125 -18.94961444 387.16683958 -24.19921875 384.26171875 C-27.09620636 382.23194218 -28.50270627 380.18174917 -30 377 C-30.47290668 373.14918846 -30.35025658 370.8111205 -28.8125 367.25 C-25.91951161 363.65870407 -23.30707614 362.14368567 -18.6953125 361.63671875 C-6.75792016 361.80650661 -6.75792016 361.80650661 -1 364 C-1 361.36 -1 358.72 -1 356 C-2.18142578 356.03480469 -2.18142578 356.03480469 -3.38671875 356.0703125 C-11.4629548 356.20411996 -19.0600053 355.45544911 -27 354 C-27 353.34 -27 352.68 -27 352 C-27.99 351.67 -28.98 351.34 -30 351 C-30.94921875 349.29296875 -30.94921875 349.29296875 -31.6875 347.1875 C-31.93886719 346.50042969 -32.19023437 345.81335938 -32.44921875 345.10546875 C-33 343 -33 343 -33 339 C-34.00264893 338.94465088 -35.00529785 338.88930176 -36.03833008 338.83227539 C-39.80878542 338.62361588 -43.57909346 338.41238783 -47.34936523 338.20043945 C-48.97172283 338.10958485 -50.59411803 338.01939869 -52.21655273 337.92993164 C-56.803318 337.67676143 -61.38892266 337.41047651 -65.97369385 337.12335205 C-67.82221016 337.01082302 -69.67158363 336.91260754 -71.52099609 336.81591797 C-72.50793457 336.75162598 -73.49487305 336.68733398 -74.51171875 336.62109375 C-75.34533936 336.57267334 -76.17895996 336.52425293 -77.0378418 336.47436523 C-79 336 -79 336 -81 333 C-81.30115953 330.16925967 -81.48911369 327.42074046 -81.59423828 324.58154297 C-81.63352479 323.71473026 -81.6728113 322.84791756 -81.71328831 321.9548378 C-81.84195782 319.05094854 -81.95651557 316.14669513 -82.0703125 313.2421875 C-82.15701107 311.17982136 -82.24416373 309.11747426 -82.33174133 307.05514526 C-82.56417734 301.48643614 -82.78138939 295.9172386 -82.9929924 290.34770203 C-83.1247588 286.88134529 -83.25920075 283.41509916 -83.39382935 279.94885254 C-84.56903689 249.4000006 -85.41018315 218.86535605 -85.43434906 188.29257965 C-85.43745964 185.7825707 -85.44589553 183.27262638 -85.4553833 180.76263428 C-85.62531779 125.38285979 -74.82542095 71.1940218 -38 28 C-37.54625 27.46648926 -37.0925 26.93297852 -36.625 26.38330078 C-30.37758568 19.12201276 -23.6511003 12.79360774 -16 7 C-14.66195312 5.95585938 -14.66195312 5.95585938 -13.296875 4.890625 C-12.43578125 4.24609375 -11.5746875 3.6015625 -10.6875 2.9375 C-9.92824219 2.36902344 -9.16898437 1.80054688 -8.38671875 1.21484375 C-5.25572633 -0.37883652 -3.48227048 -0.50556117 0 0 Z M-26.0625 24.5625 C-34.15447054 32.68499988 -40.91798156 41.2949089 -47 51 C-47.55905029 51.88800293 -47.55905029 51.88800293 -48.12939453 52.79394531 C-50.59446442 56.7720581 -52.84575246 60.84774941 -55 65 C-55.53488037 66.02287109 -55.53488037 66.02287109 -56.08056641 67.06640625 C-64.77320138 83.91662888 -70.88958963 101.65716162 -74.875 120.1875 C-75.16165527 121.50077271 -75.16165527 121.50077271 -75.45410156 122.84057617 C-79.34007848 142.35685497 -79.39880006 162.24844159 -79.37695312 182.06651688 C-79.37497715 184.33877726 -79.37698424 186.61101067 -79.37939453 188.88327026 C-79.39773743 235.94897489 -77.06502362 282.98938042 -75 330 C-69.65417863 330.41589595 -64.30825911 330.83050016 -58.96224976 331.24397278 C-57.1483803 331.38443675 -55.33453685 331.52523706 -53.52072144 331.66639709 C-13.06901159 334.81360116 27.62097642 335.61294505 68 331 C68.50734068 321.70495967 69.0117618 312.40976624 69.51279354 303.1143837 C69.7457105 298.79476871 69.97950857 294.47520577 70.21557617 290.15576172 C71.93943511 258.5874018 73.1892553 227.09960365 73.18530273 195.47998047 C73.18522096 192.23252863 73.1922688 188.98521634 73.20581055 185.73779297 C73.55882345 152.73449172 73.55882345 152.73449172 68.6875 120.1875 C68.46876221 119.23649414 68.25002441 118.28548828 68.0246582 117.30566406 C67.37380797 114.53050775 66.69532208 111.76431671 66 109 C65.80535156 108.22285645 65.61070312 107.44571289 65.41015625 106.64501953 C57.5696466 76.14138155 42.02204217 47.50997515 20 25 C18.76830078 23.69289063 18.76830078 23.69289063 17.51171875 22.359375 C11.56375372 16.17425028 5.18464987 10.70640039 -2 6 C-9.75902374 6 -20.85160103 19.4370795 -26.0625 24.5625 Z M-27 339 C-26.34 341.97 -25.68 344.94 -25 348 C-17.94080118 351.52959941 -7.49550795 350.19182937 0.1875 350.1875 C1.37190674 350.18814453 2.55631348 350.18878906 3.77661133 350.18945312 C12.34039599 350.13787465 20.57959889 349.57970674 29 348 C29.66 345.03 30.32 342.06 31 339 C11.86 339 -7.28 339 -27 339 Z M6 370 C5.67 370.66 5.34 371.32 5 372 C0.51172124 372.3960246 -2.07753141 371.08641946 -6 369 C-10.57968143 367.58498361 -15.25689891 367.43365957 -20 368 C-22.8017483 369.4631891 -22.8017483 369.4631891 -24 372 C-24 375.16123586 -23.50650587 376.47473465 -21.3125 378.75 C-17.67381404 380.71685727 -14.80137918 381.48427488 -10.71875 380.38671875 C-9.1526474 379.85027776 -7.59559373 379.28638584 -6.05078125 378.69140625 C-4 378 -4 378 -1 378 C-0.8046875 380.01822917 -0.609375 382.03645833 -0.4140625 384.0546875 C-0.13625251 386.22668245 -0.13625251 386.22668245 2 388 C4.60280568 387.67958603 4.60280568 387.67958603 7 387 C7.33 384.03 7.66 381.06 8 378 C11.49288655 376.83570448 12.0476283 377.21482412 15.3125 378.5625 C18.74230521 379.79902031 19.79717618 380.04346225 23.5 379.25 C25.88141459 378.22399467 25.88141459 378.22399467 27 377 C27.49480912 372.27348823 27.49480912 372.27348823 25.625 368.125 C19.19443166 363.67306807 11.99851274 365.90126561 6 370 Z " fill="#000000" transform="translate(259,59)"/>
<path d="M0 0 C1.0120174 2.88600547 1.70496534 5.51968812 2.3125 8.5 C2.61063599 9.90560181 2.61063599 9.90560181 2.91479492 11.33959961 C3.50170206 14.19980403 4.06230002 17.06378096 4.60693359 19.93231201 C4.8821845 21.38024291 5.16007589 22.8276732 5.43994141 24.27471924 C6.44335976 29.46767188 7.40550783 34.66654831 8.33065796 39.87402344 C8.64394475 41.6220324 8.96468977 43.36872677 9.2940979 45.11376953 C15.04866298 75.8565086 11.55059367 107.9717858 10.20404053 139.02416992 C10.01433293 143.43153803 9.83043441 147.83914017 9.6467371 152.24676228 C9.42430519 157.57736457 9.19864297 162.90782867 8.97265625 168.23828125 C8.93102922 169.2257818 8.8894022 170.21328236 8.84651375 171.23070717 C8.4499905 180.58885324 8.03852632 189.94630383 7.50170898 199.29760742 C7.42927475 200.57464035 7.35684052 201.85167328 7.2822113 203.16740417 C7 206 7 206 6 207 C3.25293179 207.12537126 0.52981369 207.18611318 -2.21875 207.20532227 C-3.082724 207.21522186 -3.946698 207.22512146 -4.83685303 207.23532104 C-7.72454021 207.26715012 -10.61224261 207.29183431 -13.5 207.31640625 C-15.52702216 207.33701454 -17.55404039 207.35801192 -19.58105469 207.37937927 C-23.86195584 207.42349277 -28.14287141 207.46434814 -32.42382812 207.50268555 C-37.80811993 207.55094118 -43.19233614 207.60471843 -48.57655334 207.66062355 C-59.83819569 207.77736832 -71.09986722 207.87554381 -82.36181641 207.95733643 C-86.01779349 207.98405529 -89.67368751 208.01499641 -93.32958984 208.05047607 C-97.31267899 208.08890196 -101.29571099 208.11803994 -105.27893066 208.13877678 C-106.70351719 208.14773054 -108.12808695 208.16007646 -109.5526123 208.1760273 C-111.47119407 208.19689781 -113.38990938 208.20422258 -115.30859375 208.21069336 C-116.36876709 208.21838242 -117.42894043 208.22607147 -118.52124023 208.23399353 C-121 208 -121 208 -123 206 C-123.36898804 203.72467041 -123.36898804 203.72467041 -123.54052734 200.79003906 C-123.61075104 199.65830261 -123.68097473 198.52656616 -123.75332642 197.36053467 C-123.82183807 196.09171448 -123.89034973 194.82289429 -123.9609375 193.515625 C-124.04100394 192.1498053 -124.12170396 190.78402263 -124.20297241 189.41827393 C-124.48423262 184.61300836 -124.74219274 179.80657124 -125 175 C-125.10170069 173.1260544 -125.2034688 171.25211246 -125.30529785 169.37817383 C-125.9904716 156.71852706 -126.64481765 144.05739531 -127.28710938 131.39550781 C-127.57064058 125.80686374 -127.85867971 120.21846176 -128.1478672 114.63010788 C-128.3728949 110.27030361 -128.59530797 105.91036887 -128.81696701 101.55039215 C-128.92215303 99.48845258 -129.02819396 97.42655642 -129.13515091 95.36470795 C-130.61073579 66.85503061 -130.61073579 66.85503061 -128.27734375 58.5 C-127.9056932 57.12154993 -127.5358143 55.74262128 -127.16748047 54.36328125 C-126.97450378 53.65252441 -126.7815271 52.94176758 -126.58270264 52.20947266 C-125.57510991 48.38891576 -124.70136123 44.53795515 -123.81640625 40.6875 C-123.44240136 39.08064904 -123.06804992 37.47387871 -122.69335938 35.8671875 C-122.12692662 33.43326238 -121.56226716 30.9989866 -121.00268555 28.56347656 C-119.02227046 19.95718558 -116.94709776 11.39676699 -114.40234375 2.9375 C-114.20669327 2.26436768 -114.01104279 1.59123535 -113.8094635 0.89770508 C-112.68582174 -2.70622806 -112.25363126 -3.8309125 -109 -6 C-106.49287698 -6.60090449 -104.03389602 -7.11408582 -101.5 -7.5625 C-100.51386719 -7.75102539 -100.51386719 -7.75102539 -99.5078125 -7.94335938 C-72.69334445 -12.84907144 -24.10854229 -15.39603306 0 0 Z M-89.6875 -3.125 C-90.40405762 -3.04652832 -91.12061523 -2.96805664 -91.85888672 -2.88720703 C-96.69501111 -2.29864809 -101.29358165 -1.25715776 -106 0 C-104.56358915 3.04218216 -103.12567446 6.08365123 -101.6875 9.125 C-101.08131836 10.40890625 -101.08131836 10.40890625 -100.46289062 11.71875 C-99.86831055 12.97558594 -99.86831055 12.97558594 -99.26171875 14.2578125 C-98.90037842 15.0223877 -98.53903809 15.78696289 -98.16674805 16.57470703 C-96.80821331 19.39866269 -95.40709391 22.19997161 -94 25 C-92.55379272 24.95456055 -92.55379272 24.95456055 -91.07836914 24.90820312 C-87.51326989 24.79622965 -83.94816427 24.68446036 -80.38305664 24.57275391 C-78.83780749 24.52430738 -77.29256008 24.4758049 -75.74731445 24.42724609 C-73.53076627 24.35760142 -71.31421193 24.28815563 -69.09765625 24.21875 C-68.4028566 24.19687622 -67.70805695 24.17500244 -66.99220276 24.15246582 C-62.11387171 24 -62.11387171 24 -61 24 C-61 14.76 -61 5.52 -61 -4 C-70.64715235 -4.14398735 -80.09527926 -4.19622279 -89.6875 -3.125 Z M-54 -3 C-54 5.91 -54 14.82 -54 24 C-45.75878984 24.94333622 -45.75878984 24.94333622 -37.51733398 25.88452148 C-31.9993563 26.5186586 -26.49207057 27.16933441 -21 28 C-15.91994406 20.37991609 -12.01614453 12.21167021 -8 4 C-11.33118367 2.57490065 -14.45512713 1.60101661 -18.01953125 0.96484375 C-18.95990234 0.79533203 -19.90027344 0.62582031 -20.86914062 0.45117188 C-21.84044922 0.28166016 -22.81175781 0.11214844 -23.8125 -0.0625 C-24.77220703 -0.23587891 -25.73191406 -0.40925781 -26.72070312 -0.58789062 C-29.47749714 -1.07903277 -32.2365649 -1.54782041 -35 -2 C-35.6914209 -2.11327637 -36.3828418 -2.22655273 -37.09521484 -2.34326172 C-42.85639681 -3.17844963 -48.00596265 -3 -54 -3 Z M-109 9 C-111.07712167 14.95726822 -112.83091689 20.91575214 -114.296875 27.05078125 C-114.49476624 27.87200974 -114.69265747 28.69323822 -114.89654541 29.53935242 C-115.30868777 31.25724266 -115.71864033 32.97565966 -116.12646484 34.69458008 C-116.75309396 37.32549003 -117.39390274 39.95269962 -118.03515625 42.58007812 C-118.43576622 44.25760488 -118.83553607 45.93533254 -119.234375 47.61328125 C-119.42698914 48.39560623 -119.61960327 49.17793121 -119.8180542 49.98396301 C-120.68710704 53.71042855 -121.12347845 56.34363032 -120 60 C-110.83002431 52.17108795 -102.35153109 43.98881023 -99 32 C-99.2092676 26.08470246 -101.35184068 21.67951318 -104.0625 16.5625 C-104.43955078 15.83095703 -104.81660156 15.09941406 -105.20507812 14.34570312 C-106.12759296 12.55906047 -107.0625312 10.77884171 -108 9 C-108.33 9 -108.66 9 -109 9 Z M-5 11 C-6.88452422 14.33795399 -8.72682604 17.69747039 -10.5625 21.0625 C-11.09552734 22.00544922 -11.62855469 22.94839844 -12.17773438 23.91992188 C-15.22812665 29.55586202 -15.22812665 29.55586202 -15.98828125 35.828125 C-12.55156523 46.85821751 -6.39227722 55.24010787 2 63 C3.485 63.495 3.485 63.495 5 64 C3.97560919 52.43144867 2.04799143 41.04675144 0 29.625 C-0.13142395 28.87864288 -0.2628479 28.13228577 -0.39825439 27.36331177 C-0.77857031 25.21207422 -1.16889345 23.0629034 -1.5625 20.9140625 C-1.79066406 19.6554541 -2.01882813 18.3968457 -2.25390625 17.10009766 C-2.84582108 13.85793786 -2.84582108 13.85793786 -5 11 Z M-93 31 C-94.12075767 33.35569441 -94.98719507 35.54382652 -95.8125 38 C-98.25748036 44.64770761 -101.15742389 49.75120337 -106 55 C-106.53238281 55.62261719 -107.06476563 56.24523437 -107.61328125 56.88671875 C-110.93610566 60.54261864 -114.36689802 62.89045407 -118.734375 65.20703125 C-120.21502441 65.99750854 -120.21502441 65.99750854 -121.72558594 66.80395508 C-122.47614258 67.1986499 -123.22669922 67.59334473 -124 68 C-122.84433644 95.83457963 -121.49087554 123.65848875 -120.07206726 151.48070526 C-119.93782802 154.11855431 -119.80443475 156.75644492 -119.67126465 159.39434814 C-119.45802471 163.61505838 -119.24239665 167.83564036 -119.02497292 172.05613708 C-118.94445738 173.62481566 -118.86464029 175.19353027 -118.78558922 176.76228333 C-118.67547548 178.94336068 -118.56255465 181.12427654 -118.44897461 183.30517578 C-118.38616806 184.53068146 -118.32336151 185.75618713 -118.25865173 187.01882935 C-117.93375763 192.01960343 -117.45370332 197.00926349 -117 202 C-78.06 201.67 -39.12 201.34 1 201 C2.27394312 176.15810918 3.51038173 151.32522296 4.52801514 126.47296143 C4.65941896 123.29173192 4.79488618 120.11067959 4.93017006 116.92961311 C5.06301962 113.78770789 5.19261039 110.6456741 5.32133102 107.50359726 C5.3816036 106.04390706 5.44294789 104.58426058 5.50554276 103.12466812 C5.67696552 99.11074976 5.82468692 95.09723433 5.9376297 91.08112335 C5.9813845 89.62114755 6.0323811 88.16137932 6.08873749 86.70183563 C6.17511887 84.37016939 6.23370615 82.03918273 6.28662109 79.70654297 C6.33359099 78.62916965 6.33359099 78.62916965 6.38150978 77.5300312 C6.43070967 74.16067426 6.36152114 72.42458398 4.1378479 69.8130188 C1.99225142 68.37312015 1.99225142 68.37312015 -0.4921875 67.22265625 C-11.04272039 62.07886062 -16.65721901 49.81434641 -20.5 39.375 C-20.8196875 38.39273438 -21.139375 37.41046875 -21.46875 36.3984375 C-22.86913697 33.68794673 -22.86913697 33.68794673 -26.21875 32.73046875 C-45.35973411 29.03277864 -74.2621638 24.19661721 -93 31 Z " fill="#000000" transform="translate(314,176)"/>
<path d="M0 0 C1.80975311 -0.00725853 1.80975311 -0.00725853 3.65606689 -0.0146637 C4.73475037 -0.01296677 5.81343384 -0.01126984 6.92480469 -0.00952148 C8.32167511 -0.00842628 8.32167511 -0.00842628 9.74676514 -0.00730896 C11.828125 0.12109375 11.828125 0.12109375 12.828125 1.12109375 C13.53561871 9.8084584 12.56895724 18.64861382 11.890625 27.30859375 C11.80385498 28.43201172 11.71708496 29.55542969 11.62768555 30.71289062 C11.49680542 32.2974707 11.49680542 32.2974707 11.36328125 33.9140625 C11.284729 34.86821045 11.20617676 35.8223584 11.12524414 36.80541992 C10.828125 39.12109375 10.828125 39.12109375 9.828125 41.12109375 C-4.36643542 41.14442404 -18.56099287 41.16200715 -32.7555685 41.17290592 C-39.34592285 41.17813547 -45.93626437 41.18523442 -52.52661133 41.1965332 C-58.88079518 41.20735953 -65.23496665 41.21337004 -71.58915901 41.21597099 C-74.01937111 41.2178257 -76.44958249 41.22144718 -78.87978935 41.22682381 C-82.27070481 41.23403086 -85.66156841 41.23508483 -89.05249023 41.23461914 C-90.06812546 41.23821442 -91.08376068 41.24180969 -92.13017273 41.24551392 C-93.04869019 41.24413925 -93.96720764 41.24276459 -94.91355896 41.24134827 C-95.71644065 41.24227006 -96.51932234 41.24319185 -97.34653378 41.24414158 C-99.171875 41.12109375 -99.171875 41.12109375 -100.171875 40.12109375 C-100.40145842 38.1576556 -100.56755134 36.186732 -100.70703125 34.21484375 C-100.79404297 32.99539063 -100.88105469 31.7759375 -100.97070312 30.51953125 C-101.05771484 29.23304688 -101.14472656 27.9465625 -101.234375 26.62109375 C-101.32525391 25.36554688 -101.41613281 24.11 -101.50976562 22.81640625 C-101.96812022 16.2409133 -102.39018658 9.71269497 -102.171875 3.12109375 C-100.21808829 1.16730704 -96.48039955 1.87880991 -93.80761719 1.82397461 C-92.64832199 1.79449486 -92.64832199 1.79449486 -91.46560669 1.76441956 C-88.88341376 1.70007766 -86.30111601 1.64287792 -83.71875 1.5859375 C-81.90634393 1.54285306 -80.09394572 1.49943637 -78.28155518 1.45570374 C-74.45469518 1.3644375 -70.62777635 1.27657121 -66.80078125 1.19116211 C-61.98561289 1.08353551 -57.17065019 0.9687619 -52.35570526 0.851614 C-34.90536269 0.42895084 -17.45602195 0.03925694 0 0 Z M-37.921875 6.55859375 C-39.02786041 6.58065887 -40.13384583 6.602724 -41.27334595 6.62545776 C-59.57758122 6.99140712 -77.87559938 7.46832999 -96.171875 8.12109375 C-96.02972772 11.12130862 -95.88325804 14.12121164 -95.734375 17.12109375 C-95.69505859 17.96027344 -95.65574219 18.79945313 -95.61523438 19.6640625 C-95.57333984 20.49550781 -95.53144531 21.32695312 -95.48828125 22.18359375 C-95.45162354 22.93769531 -95.41496582 23.69179688 -95.37719727 24.46875 C-95.10139661 28.03153036 -94.61510562 31.57524878 -94.171875 35.12109375 C-61.501875 35.12109375 -28.831875 35.12109375 4.828125 35.12109375 C6.24782937 20.6393074 6.24782937 20.6393074 6.828125 6.12109375 C-8.09423135 6.05560835 -23.00286244 6.25202437 -37.921875 6.55859375 Z " fill="#000000" transform="translate(300.171875,262.87890625)"/>
<path d="M0 0 C5.11762818 2.65358498 8.17705942 5.53117826 10 11 C10.83327878 17.03531917 10.02569021 21.34228516 6.484375 26.3359375 C3.28000118 29.9282092 0.18107623 30.87345612 -4.5 31.375 C-9.68879762 30.8190574 -12.76635201 29.3336735 -16.3125 25.5 C-19.45137972 20.84980782 -19.51181177 16.43451039 -19 11 C-15.73916453 1.90398528 -9.09679292 -1.11795603 0 0 Z M-12 10 C-13.36173498 13.97726252 -13.41834177 16.98717256 -11.8125 20.875 C-9.90016739 23.11704512 -8.82012457 24.1705516 -6 25 C-2.85877859 24.84293893 -1.30350334 24.21919686 1.25 22.375 C3.59839577 19.18789145 3.93091458 16.93786881 4 13 C2.41161066 9.42612398 1.28365642 8.18910428 -2 6 C-6.60842668 5.27235368 -8.91635758 6.57373065 -12 10 Z " fill="#000000" transform="translate(260,93)"/>
</svg>
